<svg xmlns="http://www.w3.org/2000/svg" xmlns:xlink="http://www.w3.org/1999/xlink" width="500" zoomAndPan="magnify" viewBox="0 0 375 374.999991" height="500" preserveAspectRatio="xMidYMid meet" version="1.0"><defs><g/></defs><path fill="#ffffff" d="M 18.285156 88.925781 L 355.644531 88.925781 L 355.644531 228.425781 L 18.285156 228.425781 L 18.285156 88.925781 " fill-opacity="1" fill-rule="nonzero"/><g fill="#393be5" fill-opacity="1"><g transform="translate(31.662252, 194.443771)"><g><path d="M 67 -76.46875 C 67.664062 -76.46875 68.238281 -76.222656 68.71875 -75.734375 C 69.195312 -75.253906 69.4375 -74.679688 69.4375 -74.015625 L 69.4375 -63.53125 C 69.4375 -62.863281 69.195312 -62.304688 68.71875 -61.859375 C 68.238281 -61.421875 67.664062 -61.203125 67 -61.203125 L 46.484375 -61.203125 L 46.484375 -2.453125 C 46.484375 -1.785156 46.238281 -1.207031 45.75 -0.71875 C 45.269531 -0.238281 44.695312 0 44.03125 0 L 33.546875 0 C 32.878906 0 32.320312 -0.238281 31.875 -0.71875 C 31.4375 -1.207031 31.21875 -1.785156 31.21875 -2.453125 L 31.21875 -61.203125 L 10.703125 -61.203125 C 10.035156 -61.203125 9.457031 -61.421875 8.96875 -61.859375 C 8.488281 -62.304688 8.25 -62.863281 8.25 -63.53125 L 8.25 -74.015625 C 8.25 -74.679688 8.488281 -75.253906 8.96875 -75.734375 C 9.457031 -76.222656 10.035156 -76.46875 10.703125 -76.46875 Z M 67 -76.46875 "/></g></g></g><g fill="#393be5" fill-opacity="1"><g transform="translate(109.341601, 194.443771)"><g><path d="M 69.4375 -50.265625 C 69.4375 -47.960938 69.066406 -45.789062 68.328125 -43.75 C 67.585938 -41.707031 66.585938 -39.832031 65.328125 -38.125 C 66.585938 -36.488281 67.585938 -34.648438 68.328125 -32.609375 C 69.066406 -30.566406 69.4375 -28.390625 69.4375 -26.078125 L 69.4375 -19.625 C 69.4375 -16.945312 68.914062 -14.414062 67.875 -12.03125 C 66.84375 -9.65625 65.429688 -7.578125 63.640625 -5.796875 C 61.859375 -4.015625 59.757812 -2.601562 57.34375 -1.5625 C 54.9375 -0.519531 52.394531 0 49.71875 0 L 27.984375 0 C 25.234375 0 22.664062 -0.519531 20.28125 -1.5625 C 17.90625 -2.601562 15.828125 -4.015625 14.046875 -5.796875 C 12.265625 -7.578125 10.851562 -9.65625 9.8125 -12.03125 C 8.769531 -14.414062 8.25 -16.945312 8.25 -19.625 L 8.25 -20.515625 C 8.25 -21.179688 8.488281 -21.734375 8.96875 -22.171875 C 9.457031 -22.617188 10.035156 -22.84375 10.703125 -22.84375 L 21.0625 -22.84375 C 21.738281 -22.84375 22.316406 -22.617188 22.796875 -22.171875 C 23.273438 -21.734375 23.515625 -21.179688 23.515625 -20.515625 L 23.515625 -19.625 C 23.515625 -18.351562 23.941406 -17.304688 24.796875 -16.484375 C 25.648438 -15.671875 26.710938 -15.265625 27.984375 -15.265625 L 49.71875 -15.265625 C 50.976562 -15.265625 52.015625 -15.671875 52.828125 -16.484375 C 53.648438 -17.304688 54.0625 -18.351562 54.0625 -19.625 L 54.0625 -26.078125 C 54.0625 -27.347656 53.648438 -28.410156 52.828125 -29.265625 C 52.015625 -30.117188 50.976562 -30.546875 49.71875 -30.546875 L 25.96875 -30.546875 C 25.300781 -30.546875 24.722656 -30.785156 24.234375 -31.265625 C 23.753906 -31.742188 23.515625 -32.320312 23.515625 -33 L 23.515625 -43.359375 C 23.515625 -44.023438 23.753906 -44.597656 24.234375 -45.078125 C 24.722656 -45.566406 25.300781 -45.8125 25.96875 -45.8125 L 49.71875 -45.8125 C 50.976562 -45.8125 52.015625 -46.238281 52.828125 -47.09375 C 53.648438 -47.945312 54.0625 -49.003906 54.0625 -50.265625 L 54.0625 -56.734375 C 54.0625 -57.992188 53.648438 -59.03125 52.828125 -59.84375 C 52.015625 -60.664062 50.976562 -61.078125 49.71875 -61.078125 L 27.984375 -61.078125 C 26.710938 -61.078125 25.648438 -60.664062 24.796875 -59.84375 C 23.941406 -59.03125 23.515625 -57.992188 23.515625 -56.734375 L 23.515625 -55.84375 C 23.515625 -55.175781 23.273438 -54.617188 22.796875 -54.171875 C 22.316406 -53.722656 21.738281 -53.5 21.0625 -53.5 L 10.703125 -53.5 C 10.035156 -53.5 9.457031 -53.722656 8.96875 -54.171875 C 8.488281 -54.617188 8.25 -55.175781 8.25 -55.84375 L 8.25 -56.734375 C 8.25 -59.410156 8.769531 -61.9375 9.8125 -64.3125 C 10.851562 -66.695312 12.265625 -68.78125 14.046875 -70.5625 C 15.828125 -72.34375 17.90625 -73.753906 20.28125 -74.796875 C 22.664062 -75.835938 25.234375 -76.359375 27.984375 -76.359375 L 49.71875 -76.359375 C 52.394531 -76.359375 54.9375 -75.835938 57.34375 -74.796875 C 59.757812 -73.753906 61.859375 -72.34375 63.640625 -70.5625 C 65.429688 -68.78125 66.84375 -66.695312 67.875 -64.3125 C 68.914062 -61.9375 69.4375 -59.410156 69.4375 -56.734375 Z M 69.4375 -50.265625 "/></g></g></g><g fill="#393be5" fill-opacity="1"><g transform="translate(187.020951, 194.443771)"><g><path d="M 56.625 -53.5 C 55.957031 -53.5 55.378906 -53.738281 54.890625 -54.21875 C 54.410156 -54.707031 54.171875 -55.285156 54.171875 -55.953125 L 54.171875 -56.734375 C 54.171875 -57.992188 53.742188 -59.050781 52.890625 -59.90625 C 52.035156 -60.769531 50.976562 -61.203125 49.71875 -61.203125 L 27.984375 -61.203125 C 26.710938 -61.203125 25.664062 -60.769531 24.84375 -59.90625 C 24.03125 -59.050781 23.625 -57.992188 23.625 -56.734375 L 23.625 -19.734375 C 23.625 -18.460938 24.03125 -17.398438 24.84375 -16.546875 C 25.664062 -15.691406 26.710938 -15.265625 27.984375 -15.265625 L 49.71875 -15.265625 C 50.976562 -15.265625 52.035156 -15.691406 52.890625 -16.546875 C 53.742188 -17.398438 54.171875 -18.460938 54.171875 -19.734375 L 54.171875 -20.515625 C 54.171875 -21.179688 54.410156 -21.753906 54.890625 -22.234375 C 55.378906 -22.722656 55.957031 -22.96875 56.625 -22.96875 L 67 -22.96875 C 67.664062 -22.96875 68.238281 -22.722656 68.71875 -22.234375 C 69.195312 -21.753906 69.4375 -21.179688 69.4375 -20.515625 L 69.4375 -19.734375 C 69.4375 -16.984375 68.914062 -14.414062 67.875 -12.03125 C 66.84375 -9.65625 65.429688 -7.578125 63.640625 -5.796875 C 61.859375 -4.015625 59.78125 -2.601562 57.40625 -1.5625 C 55.03125 -0.519531 52.46875 0 49.71875 0 L 27.984375 0 C 25.304688 0 22.757812 -0.519531 20.34375 -1.5625 C 17.925781 -2.601562 15.828125 -4.015625 14.046875 -5.796875 C 12.265625 -7.578125 10.851562 -9.65625 9.8125 -12.03125 C 8.769531 -14.414062 8.25 -16.984375 8.25 -19.734375 L 8.25 -56.734375 C 8.25 -59.484375 8.769531 -62.046875 9.8125 -64.421875 C 10.851562 -66.804688 12.265625 -68.890625 14.046875 -70.671875 C 15.828125 -72.453125 17.925781 -73.863281 20.34375 -74.90625 C 22.757812 -75.945312 25.304688 -76.46875 27.984375 -76.46875 L 49.71875 -76.46875 C 52.46875 -76.46875 55.03125 -75.945312 57.40625 -74.90625 C 59.78125 -73.863281 61.859375 -72.453125 63.640625 -70.671875 C 65.429688 -68.890625 66.84375 -66.804688 67.875 -64.421875 C 68.914062 -62.046875 69.4375 -59.484375 69.4375 -56.734375 L 69.4375 -55.953125 C 69.4375 -55.285156 69.195312 -54.707031 68.71875 -54.21875 C 68.238281 -53.738281 67.664062 -53.5 67 -53.5 Z M 56.625 -53.5 "/></g></g></g><g fill="#393be5" fill-opacity="1"><g transform="translate(264.7003, 194.443771)"><g><path d="M 54.0625 -74.015625 C 54.0625 -74.679688 54.300781 -75.253906 54.78125 -75.734375 C 55.269531 -76.222656 55.847656 -76.46875 56.515625 -76.46875 L 67 -76.46875 C 67.664062 -76.46875 68.21875 -76.222656 68.65625 -75.734375 C 69.101562 -75.253906 69.328125 -74.679688 69.328125 -74.015625 L 69.328125 -2.453125 C 69.328125 -1.785156 69.101562 -1.207031 68.65625 -0.71875 C 68.21875 -0.238281 67.664062 0 67 0 L 56.515625 0 C 55.847656 0 55.269531 -0.238281 54.78125 -0.71875 C 54.300781 -1.207031 54.0625 -1.785156 54.0625 -2.453125 L 54.0625 -30.546875 L 23.515625 -30.546875 L 23.515625 -2.453125 C 23.515625 -1.785156 23.273438 -1.207031 22.796875 -0.71875 C 22.316406 -0.238281 21.738281 0 21.0625 0 L 10.59375 0 C 9.925781 0 9.367188 -0.238281 8.921875 -0.71875 C 8.472656 -1.207031 8.25 -1.785156 8.25 -2.453125 L 8.25 -74.015625 C 8.25 -74.679688 8.472656 -75.253906 8.921875 -75.734375 C 9.367188 -76.222656 9.925781 -76.46875 10.59375 -76.46875 L 21.0625 -76.46875 C 21.738281 -76.46875 22.316406 -76.222656 22.796875 -75.734375 C 23.273438 -75.253906 23.515625 -74.679688 23.515625 -74.015625 L 23.515625 -45.8125 L 54.0625 -45.8125 Z M 54.0625 -74.015625 "/></g></g></g><path fill="#393be5" d="M 17.773438 208.171875 L 294.269531 208.171875 L 294.269531 308.324219 L 17.773438 308.324219 L 17.773438 208.171875 " fill-opacity="1" fill-rule="nonzero"/><g fill="#ffffff" fill-opacity="1"><g transform="translate(45.492218, 278.003322)"><g><path d="M 3.6875 0 L 3.6875 -51.578125 L 11.046875 -51.578125 L 11.046875 -7.375 L 40.53125 -7.375 L 40.53125 0 Z M 3.6875 0 "/></g></g></g><g fill="#ffffff" fill-opacity="1"><g transform="translate(100.751704, 278.003322)"><g><path d="M 33.15625 -7.375 L 33.15625 0 L 11.046875 0 L 11.046875 -7.375 Z M 3.6875 -7.375 L 3.6875 -44.21875 L 11.046875 -44.21875 L 11.046875 -7.375 Z M 11.046875 -44.21875 L 11.046875 -51.578125 L 33.15625 -51.578125 L 33.15625 -44.21875 Z M 33.15625 -7.375 L 33.15625 -44.21875 L 40.53125 -44.21875 L 40.53125 -7.375 Z M 33.15625 -7.375 "/></g></g></g><g fill="#ffffff" fill-opacity="1"><g transform="translate(156.01119, 278.003322)"><g><path d="M 33.15625 -7.375 L 33.15625 0 L 11.046875 0 L 11.046875 -7.375 Z M 3.6875 -7.375 L 3.6875 -44.21875 L 11.046875 -44.21875 L 11.046875 -7.375 Z M 11.046875 -44.21875 L 11.046875 -51.578125 L 33.15625 -51.578125 L 33.15625 -44.21875 Z M 25.796875 -22.109375 L 25.796875 -29.46875 L 40.53125 -29.46875 L 40.53125 -7.375 L 33.15625 -7.375 L 33.15625 -22.109375 Z M 33.15625 -36.84375 L 33.15625 -44.21875 L 40.53125 -44.21875 L 40.53125 -36.84375 Z M 33.15625 -36.84375 "/></g></g></g><g fill="#ffffff" fill-opacity="1"><g transform="translate(211.270669, 278.003322)"><g><path d="M 11.046875 -44.21875 L 11.046875 -29.46875 L 3.6875 -29.46875 L 3.6875 -44.21875 Z M 3.6875 -7.375 L 3.6875 -14.734375 L 11.046875 -14.734375 L 11.046875 -7.375 Z M 11.046875 0 L 11.046875 -7.375 L 33.15625 -7.375 L 33.15625 0 Z M 11.046875 -22.109375 L 11.046875 -29.46875 L 33.15625 -29.46875 L 33.15625 -22.109375 Z M 11.046875 -44.21875 L 11.046875 -51.578125 L 33.15625 -51.578125 L 33.15625 -44.21875 Z M 33.15625 -7.375 L 33.15625 -22.109375 L 40.53125 -22.109375 L 40.53125 -7.375 Z M 33.15625 -36.84375 L 33.15625 -44.21875 L 40.53125 -44.21875 L 40.53125 -36.84375 Z M 33.15625 -36.84375 "/></g></g></g><g fill="#ffffff" fill-opacity="1"><g transform="translate(266.553094, 278.003322)"><g/></g></g></svg>